<svg id="Layer_1" enable-background="new 0 0 256 256" height="512" viewBox="0 0 256 256" width="512" xmlns="http://www.w3.org/2000/svg"><path d="m173.126 93.1c.288-2.086 1.962-3.66 3.893-3.66h6.713v-9.55h-6.713c-6.675 0-12.415 5.117-13.353 11.902l-1.114 8.059h4.015c1.377 0 2.688.595 3.594 1.632.907 1.037 1.322 2.415 1.138 3.78z" fill="#a4c9ff"/><circle cx="145.077" cy="232.423" fill="#4671c6" r="17.777"/><path d="m145.078 242.443c-5.525 0-10.02-4.495-10.02-10.02s4.495-10.02 10.02-10.02c5.524 0 10.019 4.495 10.019 10.02s-4.495 10.02-10.019 10.02z" fill="#f9cfcf"/><path d="m145.077 252.2c-10.904 0-19.776-8.872-19.776-19.777s8.872-19.777 19.776-19.777c10.905 0 19.777 8.872 19.777 19.777s-8.872 19.777-19.777 19.777zm0-35.554c-8.699 0-15.776 7.078-15.776 15.777s7.077 15.777 15.776 15.777 15.777-7.078 15.777-15.777-7.078-15.777-15.777-15.777z" fill="#3762cc"/><circle cx="70.154" cy="232.423" fill="#4671c6" r="17.777"/><path d="m70.154 242.443c-5.525 0-10.02-4.495-10.02-10.02s4.495-10.02 10.02-10.02c5.524 0 10.019 4.495 10.019 10.02s-4.495 10.02-10.019 10.02z" fill="#f9cfcf"/><path d="m70.153 252.2c-10.904 0-19.776-8.872-19.776-19.777s8.872-19.777 19.776-19.777c10.905 0 19.777 8.872 19.777 19.777s-8.871 19.777-19.777 19.777zm0-35.554c-8.699 0-15.776 7.078-15.776 15.777s7.077 15.777 15.776 15.777 15.777-7.078 15.777-15.777-7.077-15.777-15.777-15.777z" fill="#3762cc"/><path d="m75.381 214.646v13.316c0 2.406-1.95 4.356-4.356 4.356h-1.251c-1.858 0-3.512-1.179-4.118-2.935l-5.086-14.737z" fill="#a4c9ff"/><path d="m150.305 214.646v13.316c0 2.406-1.95 4.356-4.356 4.356h-1.251c-1.858 0-3.512-1.179-4.118-2.935l-5.086-14.737z" fill="#a4c9ff"/><path d="m71.024 234.318h-1.251c-2.71 0-5.125-1.721-6.008-4.283l-5.086-14.736c-.211-.611-.113-1.287.262-1.813.376-.527.982-.839 1.629-.839h14.811c1.104 0 2 .896 2 2v13.315c0 3.505-2.852 6.356-6.357 6.356zm-7.648-17.672 4.171 12.084c.327.95 1.222 1.587 2.227 1.587h1.251c1.3 0 2.356-1.057 2.356-2.356v-11.315z" fill="#3762cc"/><path d="m145.948 234.318h-1.251c-2.71 0-5.125-1.721-6.008-4.283l-5.086-14.736c-.211-.611-.113-1.287.262-1.813.376-.527.982-.839 1.629-.839h14.811c1.104 0 2 .896 2 2v13.315c0 3.505-2.852 6.356-6.357 6.356zm-7.648-17.672 4.171 12.084c.327.95 1.222 1.587 2.227 1.587h1.251c1.3 0 2.356-1.057 2.356-2.356v-11.315z" fill="#3762cc"/><path d="m219.407 93.26h-31.855c-2.11 0-3.82-1.71-3.82-3.82v-9.55c0-2.11 1.71-3.82 3.82-3.82h31.855c2.11 0 3.82 1.71 3.82 3.82v9.55c0 2.11-1.711 3.82-3.82 3.82z" fill="#f9a7a7"/><path d="m219.407 93.26h-31.855c-2.11 0-3.82-1.71-3.82-3.82v-9.55c0-2.11 1.71-3.82 3.82-3.82h31.855c2.11 0 3.82 1.71 3.82 3.82v9.55c0 2.11-1.711 3.82-3.82 3.82z" fill="#f9a7a7"/><path d="m219.407 95.26h-31.855c-3.209 0-5.819-2.611-5.819-5.82v-9.55c0-3.209 2.61-5.82 5.819-5.82h31.855c3.209 0 5.819 2.611 5.819 5.82v9.55c.001 3.209-2.61 5.82-5.819 5.82zm-31.855-17.189c-1.003 0-1.819.816-1.819 1.82v9.55c0 1.003.816 1.82 1.819 1.82h31.855c1.003 0 1.819-.816 1.819-1.82v-9.55c0-1.003-.816-1.82-1.819-1.82z" fill="#3762cc"/><path d="m171.302 107.264c-.095 0-.189-.007-.285-.021-1.087-.155-1.847-1.158-1.7-2.247.107-.794-.134-1.595-.66-2.197-.527-.603-1.288-.949-2.089-.949h-4.016c-.578 0-1.128-.25-1.508-.686s-.553-1.015-.474-1.588l1.114-8.059c1.075-7.769 7.667-13.628 15.334-13.628h6.714c1.104 0 2 .896 2 2v9.55c0 1.104-.896 2-2 2h-6.714c-.922 0-1.762.849-1.911 1.933-.001.008-.003.016-.004.023l-1.827 12.164c-.148.992-1.001 1.705-1.974 1.705zm-6.454-9.413h1.72c1.312 0 2.58.38 3.661 1.075l.918-6.112c.429-3.064 2.951-5.373 5.872-5.373h4.714v-5.55h-4.714c-5.681 0-10.569 4.375-11.371 10.176zm8.278-4.751h.01z" fill="#3762cc"/><path d="m170.161 101.483c-.906-1.037-2.217-1.632-3.594-1.632h-125.533c-2.383 0-4.649 1.028-6.218 2.822s-2.287 4.177-1.969 6.54l9.691 71.969c.781 5.802 5.785 10.178 11.64 10.178h10.26 7.073 1.948 57.198 1.948 4.832 12.001c5.855 0 10.858-4.375 11.639-10.177l10.222-75.919c.184-1.366-.23-2.744-1.138-3.781zm-127.653 7.918h18.458l2.75 31.43h-16.976zm11.669 72.408c-1.094 0-2.029-.817-2.176-1.902l-3.976-29.528h16.526l2.75 31.429h-13.124zm43.106 0h-20.394l-2.75-31.429h23.144zm0-40.979h-23.979l-2.75-31.43h26.729zm29.943 40.979h-20.394v-31.429h23.143zm3.585-40.979h-23.979v-31.43h26.728zm20.802 39.078c-.146 1.084-1.081 1.901-2.175 1.901h-12.624l2.75-31.429h16.025zm5.261-39.078h-16.476l2.75-31.43h17.958z" fill="#a4c9ff"/><path d="m149.438 193.359h-95.26c-6.853 0-12.709-5.121-13.622-11.911l-9.69-71.968c-.396-2.935.496-5.896 2.446-8.124 1.947-2.227 4.762-3.505 7.722-3.505h125.534c1.954 0 3.813.844 5.099 2.315 1.287 1.471 1.876 3.426 1.615 5.364l-10.222 75.919c-.914 6.79-6.77 11.91-13.622 11.91zm-108.405-91.508c-1.806 0-3.522.779-4.711 2.138-1.19 1.36-1.733 3.166-1.492 4.957l9.69 71.969c.647 4.814 4.799 8.445 9.657 8.445h95.261c4.857 0 9.009-3.63 9.656-8.444l10.222-75.919c.107-.793-.134-1.594-.66-2.196-.001 0-.001 0-.001-.001-.526-.602-1.287-.948-2.088-.948h-125.534zm108.405 81.959h-12.625c-.561 0-1.096-.235-1.475-.649-.379-.413-.566-.967-.518-1.525l2.75-31.43c.09-1.033.955-1.826 1.992-1.826h16.025c.577 0 1.126.249 1.506.684.38.434.554 1.011.477 1.583l-3.976 29.528v.001c-.279 2.072-2.066 3.634-4.156 3.634zm2.175-3.902h.01zm-12.617-.098h10.442c.092 0 .181-.078.192-.169l3.671-27.26h-11.905zm-11.769 4h-20.394c-1.104 0-2-.896-2-2v-31.43c0-1.104.896-2 2-2h23.143c.561 0 1.096.235 1.475.649.379.413.566.967.518 1.525l-2.749 31.43c-.091 1.033-.956 1.826-1.993 1.826zm-18.394-4h16.561l2.399-27.43h-18.96zm-11.55 4h-20.394c-1.037 0-1.902-.792-1.992-1.826l-2.749-31.43c-.049-.559.139-1.112.518-1.525.379-.414.914-.649 1.475-.649h23.144c1.104 0 2 .896 2 2v31.43c-.002 1.104-.897 2-2.002 2zm-18.561-4h16.562v-27.43h-18.962zm-11.42 4h-13.124c-2.091 0-3.878-1.563-4.158-3.634l-3.977-29.528c-.077-.572.097-1.149.477-1.583.38-.435.929-.684 1.506-.684h16.526c1.037 0 1.902.792 1.992 1.826l2.75 31.43c.049.559-.139 1.112-.518 1.525-.379.412-.914.648-1.474.648zm-16.989-31.43 3.672 27.261c.012.091.101.169.193.169h10.941l-2.4-27.43zm106.561-9.55h-16.476c-.561 0-1.096-.235-1.475-.649s-.566-.967-.518-1.525l2.75-31.429c.09-1.033.955-1.826 1.992-1.826h17.957c.577 0 1.126.249 1.506.684.38.434.554 1.011.477 1.583l-4.231 31.429c-.133.992-.981 1.733-1.982 1.733zm-14.293-4h12.544l3.693-27.429h-13.837zm-11.769 4h-23.979c-1.104 0-2-.896-2-2v-31.429c0-1.104.896-2 2-2h26.728c.561 0 1.096.235 1.475.649.379.413.566.967.518 1.525l-2.749 31.429c-.091 1.034-.956 1.826-1.993 1.826zm-21.979-4h20.146l2.399-27.429h-22.545zm-11.55 4h-23.979c-1.037 0-1.902-.792-1.992-1.826l-2.75-31.429c-.049-.559.139-1.112.518-1.525.379-.414.914-.649 1.475-.649h26.729c1.104 0 2 .896 2 2v31.429c-.001 1.105-.896 2-2.001 2zm-22.146-4h20.146v-27.429h-22.547zm-11.42 4h-16.977c-1.001 0-1.849-.741-1.982-1.733l-4.232-31.429c-.077-.572.097-1.149.477-1.583.38-.435.929-.684 1.506-.684h18.459c1.037 0 1.902.792 1.992 1.826l2.75 31.429c.049.559-.139 1.112-.518 1.525s-.915.649-1.475.649zm-15.228-4h13.045l-2.4-27.429h-14.339z" fill="#3762cc"/><path d="m100.067 74.385c-8.209 0-14.889-6.679-14.889-14.888s6.68-14.888 14.889-14.888 14.888 6.679 14.888 14.888-6.679 14.888-14.888 14.888z" fill="#4671c6"/><path d="m102.348 109.213c-22.212 0-41.796-13.814-49.035-34.477l-.481.129c-.242.065-.491.098-.739.098-.974 0-1.864-.495-2.383-1.325-.514-.822-.565-1.836-.138-2.711l4.143-8.484c.477-.977 1.45-1.584 2.539-1.584.563 0 1.108.166 1.575.481l7.828 5.276c.922.621 1.382 1.687 1.199 2.783-.181 1.085-.987 1.971-2.053 2.257l-.743.199c5.909 15.806 21.172 26.346 38.328 26.346 4.005 0 8.004-.586 11.888-1.742 21.173-6.303 33.585-27.826 28.258-48.998-4.541-18.047-20.854-30.651-39.67-30.651-3.616 0-7.236.479-10.761 1.424-9.45 2.532-17.717 8.334-23.28 16.339-1.052 1.513-2.774 2.417-4.61 2.417-.956 0-1.901-.25-2.733-.724-1.334-.76-2.292-2.052-2.631-3.544-.34-1.501-.03-3.092.854-4.364 7.06-10.168 17.555-17.538 29.552-20.753 4.47-1.198 9.062-1.805 13.649-1.805 24.481 0 45.319 16.519 50.672 40.17 5.989 26.459-9.932 53.281-36.246 61.063-4.893 1.446-9.934 2.18-14.982 2.18z" fill="#ffea92"/><path d="m107.72 33.979-5.688-8.247c-.012-.017-.028-.029-.041-.046-.09-.124-.191-.237-.303-.341-.043-.04-.089-.074-.134-.11-.094-.075-.192-.143-.296-.204-.052-.03-.102-.059-.156-.085-.113-.055-.232-.098-.355-.135-.049-.015-.095-.034-.145-.045-.173-.04-.351-.066-.536-.066s-.363.026-.536.066c-.05.011-.096.03-.145.045-.123.037-.241.08-.355.135-.054.026-.104.055-.156.085-.105.061-.203.129-.296.204-.045.036-.091.071-.134.11-.112.104-.212.218-.303.341-.012.017-.029.029-.041.046l-5.688 8.247c-.748 1.085-.476 2.572.61 3.321s2.574.475 3.321-.61l1.335-1.935v24.743c0 1.318 1.069 2.387 2.387 2.387s2.387-1.069 2.387-2.387v-24.743l1.335 1.935c.463.671 1.209 1.032 1.968 1.032.467 0 .94-.137 1.353-.422 1.088-.749 1.36-2.236.612-3.321z" fill="#6bdddd"/><path d="m134.33 60.985c.075-.094.143-.191.204-.296.03-.052.059-.103.085-.156.055-.113.098-.232.135-.354.015-.049.034-.096.045-.146.04-.173.066-.351.066-.536s-.026-.363-.066-.536c-.012-.05-.031-.097-.045-.146-.037-.122-.08-.241-.135-.354-.026-.054-.055-.105-.085-.156-.061-.104-.129-.202-.204-.296-.037-.045-.071-.092-.111-.134-.103-.11-.216-.21-.338-.3-.018-.013-.031-.031-.049-.043l-8.248-5.688c-1.085-.748-2.573-.475-3.321.61-.748 1.086-.476 2.572.61 3.321l1.936 1.335h-24.743c-1.318 0-2.387 1.069-2.387 2.387s1.069 2.387 2.387 2.387h24.743l-1.936 1.335c-1.085.748-1.358 2.235-.61 3.321.463.672 1.209 1.032 1.968 1.032.467 0 .94-.137 1.353-.422l8.248-5.688c.018-.013.031-.03.049-.043.122-.089.235-.189.338-.3.04-.042.075-.088.111-.134z" fill="#6bdddd"/><path d="m102.348 111.213c-22.391 0-42.411-13.695-50.346-34.251-1.632-.029-3.118-.871-3.988-2.264-.881-1.41-.971-3.147-.239-4.647l4.144-8.484c.813-1.669 2.476-2.706 4.336-2.706.963 0 1.894.284 2.692.822l7.829 5.276c1.579 1.063 2.367 2.892 2.054 4.771-.228 1.36-1.027 2.537-2.154 3.261 6.074 13.963 20.179 23.212 35.713 23.212 3.813 0 7.62-.558 11.317-1.659 20.144-5.997 31.954-26.463 26.889-46.593-4.317-17.157-19.832-29.14-37.73-29.14-3.44 0-6.887.456-10.243 1.355-8.994 2.41-16.862 7.932-22.155 15.548-1.426 2.051-3.764 3.275-6.253 3.275-1.301 0-2.588-.341-3.722-.985-1.821-1.039-3.13-2.802-3.593-4.84-.464-2.049-.04-4.217 1.162-5.948 7.327-10.555 18.221-18.206 30.675-21.543 4.64-1.243 9.407-1.873 14.167-1.873 25.423 0 47.063 17.16 52.622 41.729 6.222 27.483-10.308 55.342-37.629 63.422-5.076 1.501-10.307 2.262-15.548 2.262zm-49.034-38.478c.83 0 1.6.521 1.887 1.339 6.943 19.821 25.89 33.138 47.146 33.138 4.856 0 9.706-.706 14.414-2.098 25.307-7.484 40.62-33.269 34.863-58.703-5.145-22.733-25.18-38.611-48.721-38.611-4.411 0-8.83.584-13.132 1.737-11.541 3.092-21.636 10.181-28.426 19.961-.563.812-.763 1.826-.547 2.782.215.945.824 1.765 1.672 2.249.529.301 1.133.461 1.742.461 1.181 0 2.29-.583 2.969-1.558 5.831-8.392 14.498-14.476 24.404-17.129 3.694-.99 7.488-1.492 11.278-1.492 19.734 0 36.845 13.226 41.609 32.163 5.591 22.214-7.423 44.793-29.627 51.403-4.067 1.211-8.259 1.825-12.458 1.825-17.864 0-34.02-11.11-40.2-27.646-.198-.528-.163-1.115.096-1.617.258-.501.716-.87 1.261-1.016l.743-.199c.309-.083.544-.34.597-.655.054-.321-.071-.611-.344-.794l-7.829-5.275c-.401-.273-.985-.116-1.198.321l-4.144 8.484c-.124.255-.11.537.037.773.152.244.402.384.686.384.075 0 .149-.01.225-.03l.479-.129c.173-.045.347-.068.518-.068z" fill="#3762cc"/><path d="m155.386 191.359c3.533 0 6.406 3.081 6.406 6.869 0 3.787-2.873 6.869-6.406 6.869h-107.303c-2.637 0-4.775 2.138-4.775 4.775s2.138 4.775 4.775 4.775h107.303c8.798 0 15.956-7.365 15.956-16.418 0-7.121-4.436-13.18-10.607-15.449-1.401 4.987-5.994 8.581-11.297 8.581z" fill="#a4c9ff"/><path d="m155.387 216.646h-107.304c-3.735 0-6.774-3.039-6.774-6.775s3.039-6.775 6.774-6.775h107.304c2.429 0 4.405-2.184 4.405-4.869s-1.977-4.869-4.405-4.869h-5.948c-1.104 0-2-.896-2-2s.896-2 2-2c4.339 0 8.192-2.929 9.37-7.122.151-.537.52-.986 1.016-1.24.497-.253 1.076-.289 1.601-.096 7.128 2.621 11.917 9.584 11.917 17.326-.001 10.158-8.056 18.42-17.956 18.42zm-107.304-9.549c-1.53 0-2.774 1.245-2.774 2.775s1.244 2.775 2.774 2.775h107.304c7.695 0 13.955-6.468 13.955-14.418 0-5.388-2.94-10.289-7.488-12.754-.822 1.737-1.992 3.26-3.407 4.493 3.126 1.294 5.346 4.509 5.346 8.261 0 4.89-3.771 8.869-8.405 8.869h-107.305z" fill="#3762cc"/></svg>